<?xml version="1.0" encoding="UTF-8" standalone="no"?>
<!-- Created with Inkscape (http://www.inkscape.org/) -->

<svg
   width="400mm"
   height="300mm"
   viewBox="0 0 400 300"
   version="1.1"
   id="svg8"
   inkscape:version="1.1.2 (0a00cf5339, 2022-02-04)"
   sodipodi:docname="disquette.svg"
   xmlns:inkscape="http://www.inkscape.org/namespaces/inkscape"
   xmlns:sodipodi="http://sodipodi.sourceforge.net/DTD/sodipodi-0.dtd"
   xmlns="http://www.w3.org/2000/svg"
   xmlns:svg="http://www.w3.org/2000/svg"
   xmlns:rdf="http://www.w3.org/1999/02/22-rdf-syntax-ns#"
   xmlns:cc="http://creativecommons.org/ns#"
   xmlns:dc="http://purl.org/dc/elements/1.1/">
  <defs
     id="defs2" />
  <sodipodi:namedview
     id="base"
     pagecolor="#ffffff"
     bordercolor="#666666"
     borderopacity="1.0"
     inkscape:pageopacity="0.0"
     inkscape:pageshadow="2"
     inkscape:zoom="2.024512"
     inkscape:cx="160.77949"
     inkscape:cy="194.36783"
     inkscape:document-units="mm"
     inkscape:current-layer="text7675"
     showgrid="false"
     inkscape:snap-global="false"
     inkscape:window-width="1366"
     inkscape:window-height="660"
     inkscape:window-x="0"
     inkscape:window-y="27"
     inkscape:window-maximized="1"
     inkscape:pagecheckerboard="0" />
  <metadata
     id="metadata5">
    <rdf:RDF>
      <cc:Work
         rdf:about="">
        <dc:format>image/svg+xml</dc:format>
        <dc:type
           rdf:resource="http://purl.org/dc/dcmitype/StillImage" />
        <dc:title />
      </cc:Work>
    </rdf:RDF>
  </metadata>
  <g
     inkscape:groupmode="layer"
     id="layer2"
     inkscape:label="cut"
     style="display:inline">
    <g
       id="g928"
       transform="matrix(-0.34287085,0,0,0.32225533,80.169767,-16.35672)">
      <path
         inkscape:connector-curvature="0"
         id="rect897"
         transform="scale(0.26458333)"
         d="m 11.433594,199.11719 c -6.2815761,0 -11.339844,5.05631 -11.339844,11.33789 v 911.97072 c 0,6.2816 5.0582679,11.3379 11.339844,11.3379 h 77.943359 v -2.6719 H 798.46484 v 2.6719 h 69.12305 c 6.28158,0 11.33984,-5.0563 11.33984,-11.3379 V 250.21289 l -47.32226,-51.0957 h -37.625 v 5.0332 h -75.43555 l -15.89453,15.43164 -0.0742,-0.0762 v 0.20117 h -18.18164 v -15.55664 h -0.0156 v -5.0332 H 216.41602 v 5.13867 H 87.892578 v -5.13867 z"
         style="opacity:1;fill:none;fill-opacity:1;stroke:#ff0000;stroke-width:3.11565;stroke-linecap:butt;stroke-linejoin:miter;stroke-miterlimit:4;stroke-dasharray:none;stroke-dashoffset:0;stroke-opacity:1" />
      <path
         id="rect904"
         style="opacity:1;fill:none;stroke:#ff0000;stroke-width:0.824349;stroke-opacity:1"
         d="m 214.78496,272.50223 h 11.81175 v 9.4494 h -11.81175 z" />
    </g>
  </g>
  <g
     inkscape:groupmode="layer"
     id="layer3"
     inkscape:label="engrave_wood"
     style="display:inline">
    <g
       id="g1122"
       transform="matrix(-0.34287085,0,0,0.32225533,80.169767,-16.35672)">
      <g
         id="g1126">
        <g
           id="g1017">
          <g
             id="g1001"
             style="fill-rule:nonzero">
            <g
               id="g987"
               style="fill-rule:nonzero">
              <g
                 id="g942"
                 style="fill-rule:nonzero">
                <path
                   id="rect931"
                   style="opacity:1;vector-effect:none;fill:none;stroke:#000000"
                   d="M 31.657875,157.27808 H 203.00488 c 3.324,0 6,2.676 6,6 V 288.6546 c 0,3.324 -2.676,6 -6,6 H 31.657875 c -3.324,0 -6,-2.676 -6,-6 V 163.27808 c 0,-3.324 2.676,-6 6,-6 z" />
                <path
                   inkscape:connector-curvature="0"
                   style="opacity:1;vector-effect:none;fill:none;fill-opacity:1;fill-rule:nonzero;stroke:#000000;stroke-width:3.77953;stroke-linecap:butt;stroke-linejoin:miter;stroke-miterlimit:4;stroke-dasharray:none;stroke-dashoffset:0;stroke-opacity:1"
                   d="m 119.65234,594.4375 c -12.56316,0 -22.677731,10.11259 -22.677731,22.67578 v 79.34961 H 789.93945 v -79.34961 c 0,-12.56319 -10.11458,-22.67578 -22.67773,-22.67578 z"
                   transform="scale(0.26458333)"
                   id="rect933" />
              </g>
              <path
                 id="rect944"
                 style="opacity:1;vector-effect:none;stroke:#000000;stroke-width:0.446157"
                 d="M 25.377596,202.14885 H 209.27844 v 0.95475 H 25.377596 Z" />
              <path
                 id="rect944-3"
                 style="opacity:1;vector-effect:none;stroke:#000000;stroke-width:0.446157"
                 d="M 25.378078,220.21956 H 209.27893 v 0.95475 H 25.378078 Z" />
              <path
                 id="rect944-6"
                 style="opacity:1;vector-effect:none;stroke:#000000;stroke-width:0.446157"
                 d="M 25.378078,238.71257 H 209.27893 v 0.95475 H 25.378078 Z" />
              <path
                 id="rect944-7"
                 style="opacity:1;vector-effect:none;stroke:#000000;stroke-width:0.446157"
                 d="M 25.378078,257.01105 H 209.27893 v 0.95474 H 25.378078 Z" />
              <path
                 id="rect944-5"
                 style="opacity:1;vector-effect:none;stroke:#000000;stroke-width:0.446157"
                 d="M 25.378078,274.42941 H 209.27893 v 0.95475 H 25.378078 Z" />
            </g>
            <path
               id="rect989"
               style="opacity:1;vector-effect:none;fill:none;stroke:#ff0000"
               d="m 8.276041,272.31326 h 9 c 0.554,0 1,0.446 1,1 v 7 c 0,0.554 -0.446,1 -1,1 h -9 c -0.554,0 -1,-0.446 -1,-1 v -7 c 0,-0.554 0.446,-1 1,-1 z" />
          </g>
          <path
             sodipodi:nodetypes="cccccccc"
             inkscape:connector-curvature="0"
             id="path1003"
             d="m 7.937,88.711002 h 4.442 v -6.703 h 2.456565 L 10.205357,69.52902 5.5751489,82.008002 H 7.937 Z"
             style="fill:#000000;fill-opacity:1;fill-rule:evenodd;stroke:#ff0000;stroke-width:0.264583px;stroke-linecap:butt;stroke-linejoin:miter;stroke-opacity:1" />
        </g>
        <path
           style="fill:none;fill-rule:evenodd;stroke:#000000;stroke-width:1;stroke-linecap:butt;stroke-linejoin:miter;stroke-miterlimit:4;stroke-dasharray:none;stroke-opacity:1"
           d="M 191.161,75.009673 V 92.302085"
           id="path1019"
           inkscape:connector-curvature="0"
           sodipodi:nodetypes="cc" />
        <path
           style="fill:none;fill-rule:evenodd;stroke:#000000;stroke-width:1;stroke-linecap:butt;stroke-linejoin:miter;stroke-miterlimit:4;stroke-dasharray:none;stroke-opacity:1"
           d="m 193.713,75.010002 v 7.465 h 3.969 v -7.465"
           id="path1021"
           inkscape:connector-curvature="0"
           sodipodi:nodetypes="cccc" />
        <path
           style="display:inline;fill:none;fill-rule:evenodd;stroke:#000000;stroke-width:1;stroke-linecap:butt;stroke-linejoin:miter;stroke-miterlimit:4;stroke-dasharray:none;stroke-opacity:1"
           d="M 200.13793,75.010002 V 92.302"
           id="path1019-3"
           inkscape:connector-curvature="0"
           sodipodi:nodetypes="cc" />
        <path
           style="display:inline;fill:none;fill-rule:evenodd;stroke:#000000;stroke-width:1;stroke-linecap:butt;stroke-linejoin:miter;stroke-miterlimit:4;stroke-dasharray:none;stroke-opacity:1"
           d="m 193.713,92.302 v -7.465 h 3.969 v 7.465"
           id="path1021-5"
           inkscape:connector-curvature="0"
           sodipodi:nodetypes="cccc" />
        <path
           id="path1072"
           style="opacity:1;vector-effect:none;fill:none;stroke:#000000"
           d="m 201.862,78.182259 a 5.5,5.5 0 0 1 5.5,5.5 5.5,5.5 0 0 1 -5.5,5.5" />
        <path
           id="path1072-6"
           style="display:inline;opacity:1;vector-effect:none;fill:none;stroke:#000000;stroke-width:0.975487"
           d="m 201.88699,75.363989 a 8.2916355,8.2916355 0 0 1 8.29164,8.291635 8.2916355,8.2916355 0 0 1 -8.29164,8.291636" />
      </g>
      <path
         id="rect838"
         d="m 57.249218,52.665518 v 77.226812 c 0,3.324 2.676149,6.00015 6.000149,6.00015 H 175.0689 c 3.324,0 6.00015,-2.67615 6.00015,-6.00015 V 52.665518 Z"
         style="opacity:1;vector-effect:none;fill:none;fill-opacity:1;stroke:#000000;stroke-width:1;stroke-linecap:butt;stroke-linejoin:miter;stroke-miterlimit:4;stroke-dasharray:none;stroke-dashoffset:0;stroke-opacity:1"
         inkscape:connector-curvature="0" />
      <path
         inkscape:connector-curvature="0"
         id="rect845"
         d="m 131.52663,65.952072 h 28.2438 c 0.831,0 1.5,0.669 1.5,1.5 v 60.610138 c 0,0.831 -0.669,1.5 -1.5,1.5 h -28.2438 c -0.831,0 -1.5,-0.669 -1.5,-1.5 V 67.452072 c 0,-0.831 0.669,-1.5 1.5,-1.5 z"
         style="opacity:1;vector-effect:none;fill:none;fill-opacity:1;stroke:#ff0000;stroke-width:1;stroke-linecap:butt;stroke-linejoin:miter;stroke-miterlimit:4;stroke-dasharray:none;stroke-dashoffset:0;stroke-opacity:1" />
      <path
         sodipodi:nodetypes="cccccc"
         inkscape:connector-curvature="0"
         id="path897-2-2"
         d="m 23.258892,54.044894 0.09655,76.432636 c 0.04439,4.35339 1.957507,6.77173 5.738779,7.25558 H 176.43402 c 4.06432,-0.16993 6.38858,-2.29394 6.53917,-6.85983 V 58.053131"
         style="display:inline;fill:none;fill-rule:evenodd;stroke:#000000;stroke-width:1.00578;stroke-linecap:butt;stroke-linejoin:miter;stroke-miterlimit:4;stroke-dasharray:none;stroke-opacity:1" />
    </g>
    <g
       aria-label="Antoine.exe"
       transform="matrix(0.33240329,0,0,0.33240331,89.538631,-25.829571)"
       id="text7675"
       style="font-size:16.9807px;line-height:1.25;letter-spacing:0px;word-spacing:0px;display:inline;stroke-width:0.795971">
      <g
         aria-label="Ingrid.gif"
         transform="scale(-1,1)"
         id="text1759"
         style="stroke-width:0.63357">
        <path
           d="m 69.099611,204.35499 q 0.01698,0 0.101885,-0.0509 0.0849,-0.0679 0.220749,-0.13584 0.152826,-0.0679 0.322633,-0.0679 0.271691,0 0.458479,0.15283 0.203768,0.13585 0.203768,0.37358 0,0.37357 -0.560363,0.71318 -0.560363,0.32264 -2.122587,0.91696 -1.018842,0.39056 -1.46034,0.39056 -0.271692,0 -0.730171,-0.13585 -0.49244,-0.13584 -0.679228,-0.28867 -0.186787,-0.15283 -0.186787,-0.39056 0,-0.25471 0.135845,-0.33961 0.135846,-0.0849 0.526402,-0.0849 0.594325,0 1.511282,-0.39056 l 0.849035,-0.39055 -0.152826,-3.1754 q -0.152826,-3.17539 -0.152826,-5.02628 v -1.81694 l -0.492441,0.13585 q -0.832054,0.23773 -1.613166,0.23773 -0.984881,0 -0.984881,-0.37358 0,-0.22075 0.594325,-0.47546 0.594324,-0.27169 1.511282,-0.56036 0.933939,-0.28867 1.188649,-0.39056 0.186788,-0.0849 1.103746,-0.0849 1.171668,0 1.494301,0.11887 0.118865,0.0509 0.220749,0.22074 0.101884,0.16981 0.101884,0.32264 0,0.30565 -0.288671,0.45848 -0.288672,0.13584 -1.120727,0.23773 l -0.509421,0.0679 0.03396,2.95464 q 0.118865,6.87718 0.475459,6.87718 z"
           style="font-family:Purisa;-inkscape-font-specification:Purisa"
           id="path4345" />
        <path
           d="m 74.584375,197.15518 q 0,-0.57735 0.339614,-0.57735 0.220749,0 0.322633,0.50942 0.101885,0.49244 0.373576,2.95465 0.305652,2.66597 0.356595,2.78483 0.06792,-0.0679 0.49244,-1.37544 0.390556,-1.22261 0.611305,-1.69807 0.23773,-0.49244 0.815074,-1.30751 1.239591,-1.71505 1.918819,-1.71505 0.441498,0 0.832054,0.59432 0.526402,0.78112 0.645267,1.54525 0.118864,0.76413 0.169807,3.61689 0.03396,1.83391 0.03396,2.17353 0,0.84903 -0.06792,1.23959 -0.05094,0.37357 -0.169807,0.45848 -0.101884,0.10188 -0.373575,0.11886 -0.152827,0 -0.203769,-0.13584 -0.05094,-0.11887 -0.05094,-0.57735 0,-0.25471 0.03396,-1.08676 0.03396,-0.84904 0.03396,-1.42638 0,-1.44336 -0.118865,-2.8188 -0.101884,-1.39241 -0.25471,-1.78297 -0.0849,-0.22075 -0.271692,-0.45848 -0.186787,-0.23773 -0.356594,-0.23773 -0.356595,0 -1.137707,1.22261 -0.781112,1.20563 -1.341475,2.54711 -0.526402,1.29053 -0.71319,1.9358 -0.186787,0.64526 -0.288672,1.71505 -0.186787,1.73203 -0.271691,1.73203 -0.135845,0 -0.390556,-0.28867 -0.186788,-0.18679 -0.25471,-0.7981 -0.06792,-0.62828 -0.186788,-2.4622 -0.118865,-1.8509 -0.322633,-3.73575 -0.203769,-1.95278 -0.203769,-2.66597 z"
           style="font-family:Purisa;-inkscape-font-specification:Purisa"
           id="path4347" />
        <path
           d="m 91.649971,209.55109 q 0.832054,0 0.832054,-0.73017 0,-1.23959 -0.101884,-2.19051 -0.0849,-0.93394 -0.220749,-1.57921 -0.118865,-0.64526 -0.135846,-0.93394 -0.118865,-1.73203 -0.23773,-1.73203 -0.06792,0 -0.25471,0.30566 -0.424518,0.62828 -1.375437,1.40939 -0.950919,0.78112 -1.579205,1.01885 -0.73017,0.28867 -1.613166,0.28867 -0.543383,0 -0.866016,-0.13585 -0.305653,-0.13584 -0.815074,-0.57734 -0.49244,-0.4415 -0.696208,-0.78111 -0.203769,-0.33962 -0.322634,-0.9679 -0.118865,-0.62829 -0.118865,-1.06979 0,-0.32263 0.05094,-0.47546 0.118864,-0.45848 0.628285,-1.42638 0.509421,-0.9679 0.933939,-1.51128 0.356595,-0.47546 1.324494,-1.10374 0.984881,-0.64527 1.732032,-0.883 0.781112,-0.25471 1.782973,-0.25471 1.256572,0 2.088626,0.4415 0.832055,0.42451 0.832055,1.32449 0,0.50942 -0.254711,1.25657 -0.23773,0.74715 -0.23773,1.30752 0,0.28867 0.390556,5.62061 l 0.254711,3.515 -0.594325,0.47546 q -0.475459,0.39056 -0.967899,0.39056 -0.899978,0 -2.190511,-0.45848 -1.290533,-0.4415 -2.224471,-1.03582 -0.933939,-0.57735 -0.933939,-0.95092 0,-0.4415 0.458479,-1.08677 0.47546,-0.64526 0.798093,-0.64526 0.373575,0 0.373575,0.25471 0,0.15282 -0.152826,0.45848 -0.152826,0.30565 -0.152826,0.59432 0,0.47546 0.628286,0.83206 0.628286,0.35659 1.069784,0.35659 0.25471,0 0.832054,0.33961 0.594324,0.33962 1.035823,0.33962 z m -6.452666,-7.70924 q 0,0.98488 0.509421,1.79995 0.509421,0.81508 1.273552,0.81508 1.035823,0 2.224472,-0.93394 1.20563,-0.95092 1.95278,-2.36032 0.407537,-0.79809 0.696209,-1.81693 0.305653,-1.03583 0.305653,-1.63015 0,-0.33961 -0.118865,-0.40754 -0.390556,-0.20376 -1.239591,-0.20376 -0.781112,0 -1.341476,0.1698 -1.47732,0.42452 -2.869738,1.98674 -1.392417,1.56223 -1.392417,2.58107 z"
           style="font-family:Purisa;-inkscape-font-specification:Purisa"
           id="path4349" />
        <path
           d="m 101.94025,198.08912 q 0.28867,0 0.50942,0.18678 0.22075,0.16981 0.22075,0.28868 0,0.20376 -0.64527,0.45847 -1.0528,0.42452 -2.156546,2.05467 -1.086764,1.61317 -1.324494,3.12445 -0.271691,1.71505 -0.441498,2.24145 -0.169807,0.54338 -0.441499,0.54338 -0.237729,0 -0.373575,-0.1698 -0.118865,-0.16981 -0.169807,-0.37358 -0.03396,-0.20377 -0.0849,-0.74715 -0.01698,-0.10188 -0.01698,-0.15283 -0.407537,-4.27913 -0.407537,-6.75832 0,-0.88299 0.06792,-1.08676 0.186788,-0.54338 0.47546,-0.54338 0.271691,0 0.271691,0.45848 0,0.76413 0.237729,2.4622 0.23773,1.69807 0.356595,1.69807 0.152826,0 0.628286,-0.93394 0.594325,-1.10375 1.579206,-1.91882 1.00186,-0.83205 1.71505,-0.83205 z"
           style="font-family:Purisa;-inkscape-font-specification:Purisa"
           id="path4351" />
        <path
           d="m 105.77787,196.66274 q 0.23773,-0.20377 0.40754,-0.20377 0.35659,0 0.50942,1.13771 0.16981,1.12072 0.30565,4.33007 0.0679,1.49431 0.0679,2.69994 0,1.20562 -0.10188,1.32449 -0.20377,0.25471 -0.50942,0.25471 -0.42452,0 -0.5264,-0.35659 -0.0849,-0.22075 -0.25471,-3.43011 -0.16981,-3.22633 -0.16981,-4.4829 0,-1.0528 0.27169,-1.27355 z m -0.10188,-3.99047 q 0,-0.23773 0.18678,-0.47546 0.20377,-0.23773 0.3566,-0.23773 0.16981,0 0.45848,0.23773 0.30565,0.22075 0.30565,0.57735 0,0.25471 -0.15283,0.4415 -0.13584,0.1698 -0.37357,0.1698 -0.27169,0 -0.5264,-0.20377 -0.25471,-0.20376 -0.25471,-0.50942 z"
           style="font-family:Purisa;-inkscape-font-specification:Purisa"
           id="path4353" />
        <path
           d="m 119.43033,206.51154 q 0,0.37358 -0.15283,0.57735 -0.13584,0.22075 -0.25471,0.25471 -0.10188,0.0509 -0.18679,0.0509 -0.22075,0 -0.37357,-0.15283 -0.15283,-0.13584 -0.23773,-0.50942 -0.0849,-0.35659 -0.11887,-0.54338 -0.017,-0.18679 -0.0679,-0.69621 -0.11886,-1.71505 -0.27169,-1.71505 -0.18679,0 -0.59432,0.49244 -1.90184,2.24145 -4.00745,2.24145 -0.62829,0 -1.25657,-0.23773 -2.17353,-0.81507 -2.17353,-3.32821 0,-1.08677 0.35659,-2.07165 0.37358,-1.00186 0.93394,-1.68109 0.57735,-0.67923 1.15469,-1.13771 0.57734,-0.45847 1.10375,-0.64526 0.66224,-0.25471 0.91695,-0.25471 0.4415,0 1.47732,0.57734 1.05281,0.57734 1.46034,1.12073 0.45848,0.6113 0.69621,0.6113 0.017,0 0.017,0 0,-0.017 0.017,-0.017 0.18679,-0.11886 0.18679,-4.43196 0,-4.26216 0.20377,-4.8395 0.22075,-0.5264 0.66225,-0.5264 h 0.45848 l -0.13585,6.97907 q -0.0509,2.59804 -0.0509,4.63573 0,2.76785 0.11886,3.9565 0.11887,1.18865 0.11887,1.29053 z m -3.97349,-7.52245 q -1.00186,-0.66224 -1.39241,-0.66224 -0.33962,0 -1.52827,1.15468 -1.18864,1.15469 -1.40939,1.69807 -0.16981,0.40754 -0.16981,1.47732 0,1.30752 0.22075,1.69807 0.16981,0.30566 0.81507,0.66225 0.66225,0.3566 1.30752,0.3566 1.15468,0 2.92068,-1.69807 1.39241,-1.34148 1.39241,-1.74902 0,-0.56036 -0.71319,-1.4943 -0.6962,-0.93394 -1.44336,-1.44336 z"
           style="font-family:Purisa;-inkscape-font-specification:Purisa"
           id="path4355" />
        <path
           d="m 123.01323,206.07004 q 0,-0.6113 0.84903,-1.4943 0.86602,-0.89997 1.15469,-0.89997 0.35659,0 0.35659,-0.2717 0,-0.10188 0.11887,-0.18678 0.13584,-0.0849 0.30565,-0.0849 0.16981,0 0.28867,0.0849 0.11887,0.0849 0.11887,0.18678 0,0.2717 0.49244,0.2717 0.4415,0 0.73017,0.42451 0.30565,0.42452 0.30565,1.00186 0,0.93394 -0.883,1.86788 -0.88299,0.95092 -1.98674,0.95092 -0.95092,0 -1.4094,-0.66225 -0.44149,-0.66224 -0.44149,-1.18865 z m 2.19051,0.0679 q 0.30565,0 0.59432,-0.27169 0.30565,-0.27169 0.30565,-0.39056 0,-0.0849 -0.22075,-0.0849 -0.40753,0 -0.66224,0.1698 -0.25471,0.16981 -0.25471,0.39056 0,0.18679 0.23773,0.18679 z"
           style="font-family:Purisa;-inkscape-font-specification:Purisa"
           id="path4357" />
        <path
           d="m 138.63544,209.55109 q 0.83205,0 0.83205,-0.73017 0,-1.23959 -0.10188,-2.19051 -0.0849,-0.93394 -0.22075,-1.57921 -0.11887,-0.64526 -0.13585,-0.93394 -0.11886,-1.73203 -0.23773,-1.73203 -0.0679,0 -0.25471,0.30566 -0.42452,0.62828 -1.37543,1.40939 -0.95092,0.78112 -1.57921,1.01885 -0.73017,0.28867 -1.61317,0.28867 -0.54338,0 -0.86601,-0.13585 -0.30565,-0.13584 -0.81508,-0.57734 -0.49244,-0.4415 -0.6962,-0.78111 -0.20377,-0.33962 -0.32264,-0.9679 -0.11886,-0.62829 -0.11886,-1.06979 0,-0.32263 0.0509,-0.47546 0.11886,-0.45848 0.62829,-1.42638 0.50942,-0.9679 0.93393,-1.51128 0.3566,-0.47546 1.3245,-1.10374 0.98488,-0.64527 1.73203,-0.883 0.78111,-0.25471 1.78297,-0.25471 1.25658,0 2.08863,0.4415 0.83205,0.42451 0.83205,1.32449 0,0.50942 -0.25471,1.25657 -0.23773,0.74715 -0.23773,1.30752 0,0.28867 0.39056,5.62061 l 0.25471,3.515 -0.59432,0.47546 q -0.47546,0.39056 -0.9679,0.39056 -0.89998,0 -2.19051,-0.45848 -1.29054,-0.4415 -2.22448,-1.03582 -0.93393,-0.57735 -0.93393,-0.95092 0,-0.4415 0.45847,-1.08677 0.47546,-0.64526 0.7981,-0.64526 0.37357,0 0.37357,0.25471 0,0.15282 -0.15282,0.45848 -0.15283,0.30565 -0.15283,0.59432 0,0.47546 0.62829,0.83206 0.62828,0.35659 1.06978,0.35659 0.25471,0 0.83205,0.33961 0.59433,0.33962 1.03583,0.33962 z m -6.45267,-7.70924 q 0,0.98488 0.50942,1.79995 0.50942,0.81508 1.27355,0.81508 1.03583,0 2.22448,-0.93394 1.20563,-0.95092 1.95278,-2.36032 0.40753,-0.79809 0.69621,-1.81693 0.30565,-1.03583 0.30565,-1.63015 0,-0.33961 -0.11887,-0.40754 -0.39055,-0.20376 -1.23959,-0.20376 -0.78111,0 -1.34147,0.1698 -1.47732,0.42452 -2.86974,1.98674 -1.39242,1.56223 -1.39242,2.58107 z"
           style="font-family:Purisa;-inkscape-font-specification:Purisa"
           id="path4359" />
        <path
           d="m 143.83151,196.66274 q 0.23773,-0.20377 0.40754,-0.20377 0.35659,0 0.50942,1.13771 0.1698,1.12072 0.30565,4.33007 0.0679,1.49431 0.0679,2.69994 0,1.20562 -0.10188,1.32449 -0.20377,0.25471 -0.50942,0.25471 -0.42452,0 -0.5264,-0.35659 -0.0849,-0.22075 -0.25471,-3.43011 -0.16981,-3.22633 -0.16981,-4.4829 0,-1.0528 0.27169,-1.27355 z m -0.10188,-3.99047 q 0,-0.23773 0.18678,-0.47546 0.20377,-0.23773 0.3566,-0.23773 0.1698,0 0.45848,0.23773 0.30565,0.22075 0.30565,0.57735 0,0.25471 -0.15283,0.4415 -0.13584,0.1698 -0.37357,0.1698 -0.27169,0 -0.5264,-0.20377 -0.25471,-0.20376 -0.25471,-0.50942 z"
           style="font-family:Purisa;-inkscape-font-specification:Purisa"
           id="path4361" />
        <path
           d="m 150.38603,198.70042 q -0.20376,0 -0.86601,0.18679 -0.64527,0.16981 -1.03582,0.16981 -0.74715,0 -0.74715,-0.47546 0,-0.18679 0.27169,-0.33962 0.28867,-0.15282 1.10374,-0.39055 l 1.37544,-0.40754 0.034,-1.47732 q 0.034,-1.57921 0.23773,-3.48104 0.15283,-1.4094 0.27169,-1.78298 0.11887,-0.37357 0.5264,-0.78111 0.33962,-0.33961 0.54339,-0.4415 0.22074,-0.10188 0.6113,-0.10188 0.28867,0 1.22261,0.0849 0.71319,0.0679 1.01884,0.20377 0.30566,0.11886 0.69621,0.50942 0.57735,0.57734 0.57735,1.0528 0,0.33962 -0.2717,0.71319 -0.25471,0.3566 -0.39055,0.3566 -0.20377,0 -0.20377,-0.57735 0,-0.54338 -0.30565,-0.83205 -0.28867,-0.30565 -1.13771,-0.57734 -0.56036,-0.16981 -0.86602,-0.16981 -0.73017,0 -1.1377,0.84903 -0.15283,0.33962 -0.28867,1.95278 -0.11887,1.59619 -0.11887,2.93766 0,0.9679 0.0679,1.22262 0.0849,0.23773 0.42452,0.23773 0.20377,0 0.84904,-0.11887 0.64526,-0.11886 1.06978,-0.11886 0.23773,0 0.39056,0.0849 0.15282,0.0679 0.15282,0.16981 0,0.28867 -1.46034,0.73017 l -1.46034,0.42451 -0.0509,2.69993 q 0,0.20377 -0.017,0.56037 0,0.33961 0,0.47546 0,1.27355 0.11886,1.96976 0.11887,0.69621 0.23773,1.00186 0.11887,0.30565 0.11887,0.66225 0,0.50942 -0.47546,0.50942 -0.89998,0 -0.89998,-4.73762 0,-2.83577 -0.10188,-2.93766 -0.017,-0.017 -0.0849,-0.017 z"
           style="font-family:Purisa;-inkscape-font-specification:Purisa"
           id="path4363" />
      </g>
    </g>
  </g>
  <g
     inkscape:groupmode="layer"
     id="layer4"
     inkscape:label="engrave_acrylic"
     style="display:inline" />
</svg>
